<mxfile host="65bd71144e">
    <diagram id="R_PuKiIMnyWnv1Evqzq0" name="Page-1">
        <mxGraphModel dx="798" dy="878" grid="1" gridSize="10" guides="1" tooltips="1" connect="1" arrows="1" fold="1" page="1" pageScale="1" pageWidth="850" pageHeight="1100" math="0" shadow="0">
            <root>
                <mxCell id="0"/>
                <mxCell id="1" parent="0"/>
                <mxCell id="35" style="edgeStyle=none;html=1;entryX=0.5;entryY=0;entryDx=0;entryDy=0;fontSize=14;startArrow=classic;startFill=1;" parent="1" edge="1" target="3">
                    <mxGeometry relative="1" as="geometry">
                        <mxPoint x="480" y="290" as="sourcePoint"/>
                        <mxPoint x="480.99999999999994" y="310" as="targetPoint"/>
                    </mxGeometry>
                </mxCell>
                <mxCell id="74" style="edgeStyle=none;html=1;exitX=0.183;exitY=0.974;exitDx=0;exitDy=0;entryX=0.405;entryY=0.011;entryDx=0;entryDy=0;entryPerimeter=0;exitPerimeter=0;" parent="1" edge="1" target="71" source="25">
                    <mxGeometry relative="1" as="geometry">
                        <mxPoint x="482.2500000000007" y="240" as="sourcePoint"/>
                        <mxPoint x="479.7878787878792" y="253" as="targetPoint"/>
                    </mxGeometry>
                </mxCell>
                <mxCell id="25" value="" style="rounded=0;whiteSpace=wrap;html=1;fontSize=14;" parent="1" vertex="1">
                    <mxGeometry x="431" y="197" width="265" height="43" as="geometry"/>
                </mxCell>
                <mxCell id="75" style="edgeStyle=none;html=1;exitX=1;exitY=0.25;exitDx=0;exitDy=0;entryX=0;entryY=0.75;entryDx=0;entryDy=0;" parent="1" source="2" target="25" edge="1">
                    <mxGeometry relative="1" as="geometry"/>
                </mxCell>
                <mxCell id="2" value="Device Plugin" style="rounded=0;whiteSpace=wrap;html=1;fontSize=14;" parent="1" vertex="1">
                    <mxGeometry x="270" y="220" width="120" height="40" as="geometry"/>
                </mxCell>
                <mxCell id="3" value="Multi-NIC CNI" style="rounded=0;whiteSpace=wrap;html=1;fontSize=14;" parent="1" vertex="1">
                    <mxGeometry x="420" y="310" width="120" height="40" as="geometry"/>
                </mxCell>
                <mxCell id="4" value="IPAM Plugin" style="rounded=0;whiteSpace=wrap;html=1;fontSize=14;" parent="1" vertex="1">
                    <mxGeometry x="571" y="293" width="120" height="40" as="geometry"/>
                </mxCell>
                <mxCell id="15" style="edgeStyle=none;html=1;exitX=1;exitY=0.5;exitDx=0;exitDy=0;entryX=0;entryY=0.5;entryDx=0;entryDy=0;fontSize=14;" parent="1" source="9" target="3" edge="1">
                    <mxGeometry relative="1" as="geometry"/>
                </mxCell>
                <mxCell id="9" value="Multus CNI" style="rounded=0;whiteSpace=wrap;html=1;fontSize=14;" parent="1" vertex="1">
                    <mxGeometry x="270" y="310" width="120" height="40" as="geometry"/>
                </mxCell>
                <mxCell id="12" style="edgeStyle=none;html=1;exitX=1;exitY=0.5;exitDx=0;exitDy=0;entryX=0;entryY=0.5;entryDx=0;entryDy=0;fontSize=14;" parent="1" source="11" target="2" edge="1">
                    <mxGeometry relative="1" as="geometry">
                        <Array as="points">
                            <mxPoint x="250" y="300"/>
                            <mxPoint x="250" y="240"/>
                        </Array>
                    </mxGeometry>
                </mxCell>
                <mxCell id="107" style="edgeStyle=none;html=1;exitX=0.5;exitY=1;exitDx=0;exitDy=0;entryX=0;entryY=0.5;entryDx=0;entryDy=0;" edge="1" parent="1" source="11" target="87">
                    <mxGeometry relative="1" as="geometry">
                        <Array as="points">
                            <mxPoint x="185" y="595"/>
                        </Array>
                    </mxGeometry>
                </mxCell>
                <mxCell id="11" value="Kubelet" style="rounded=0;whiteSpace=wrap;html=1;fontSize=14;" parent="1" vertex="1">
                    <mxGeometry x="140" y="280" width="90" height="40" as="geometry"/>
                </mxCell>
                <mxCell id="13" style="edgeStyle=none;html=1;exitX=1;exitY=0.75;exitDx=0;exitDy=0;entryX=0;entryY=0.5;entryDx=0;entryDy=0;fontSize=14;" parent="1" source="11" target="9" edge="1">
                    <mxGeometry relative="1" as="geometry">
                        <mxPoint x="240" y="310" as="sourcePoint"/>
                        <mxPoint x="300.0000000000001" y="250" as="targetPoint"/>
                        <Array as="points">
                            <mxPoint x="250" y="310"/>
                            <mxPoint x="250" y="330"/>
                            <mxPoint x="270" y="330"/>
                        </Array>
                    </mxGeometry>
                </mxCell>
                <mxCell id="17" value="" style="rounded=0;whiteSpace=wrap;html=1;fontSize=14;" parent="1" vertex="1">
                    <mxGeometry x="431" y="137" width="265" height="60" as="geometry"/>
                </mxCell>
                <mxCell id="19" value="Pod A with dedicated networks" style="text;html=1;align=center;verticalAlign=middle;resizable=0;points=[];autosize=1;strokeColor=none;fillColor=none;fontSize=14;" parent="1" vertex="1">
                    <mxGeometry x="425" y="137" width="210" height="30" as="geometry"/>
                </mxCell>
                <mxCell id="20" value="vf0" style="rounded=0;whiteSpace=wrap;html=1;fontSize=14;" parent="1" vertex="1">
                    <mxGeometry x="471" y="214" width="85" height="20" as="geometry"/>
                </mxCell>
                <mxCell id="21" value="vf1" style="rounded=0;whiteSpace=wrap;html=1;fontSize=14;" parent="1" vertex="1">
                    <mxGeometry x="571" y="214" width="85" height="20" as="geometry"/>
                </mxCell>
                <mxCell id="24" value="Allocated devices" style="text;html=1;align=center;verticalAlign=middle;resizable=0;points=[];autosize=1;strokeColor=none;fillColor=none;fontSize=14;" parent="1" vertex="1">
                    <mxGeometry x="424" y="193" width="130" height="30" as="geometry"/>
                </mxCell>
                <mxCell id="60" style="edgeStyle=none;html=1;exitX=1;exitY=0.25;exitDx=0;exitDy=0;entryX=0.5;entryY=0;entryDx=0;entryDy=0;" parent="1" source="26" target="2" edge="1">
                    <mxGeometry relative="1" as="geometry">
                        <Array as="points">
                            <mxPoint x="330" y="188"/>
                        </Array>
                    </mxGeometry>
                </mxCell>
                <mxCell id="26" value="" style="rounded=0;whiteSpace=wrap;html=1;fontSize=14;" parent="1" vertex="1">
                    <mxGeometry x="80" y="160" width="140" height="110" as="geometry"/>
                </mxCell>
                <mxCell id="27" value="Node" style="text;html=1;align=center;verticalAlign=middle;resizable=0;points=[];autosize=1;strokeColor=none;fillColor=none;fontSize=14;" parent="1" vertex="1">
                    <mxGeometry x="70" y="156" width="60" height="30" as="geometry"/>
                </mxCell>
                <mxCell id="28" value="vf0" style="rounded=0;whiteSpace=wrap;html=1;fontSize=14;" parent="1" vertex="1">
                    <mxGeometry x="110" y="180" width="85" height="20" as="geometry"/>
                </mxCell>
                <mxCell id="29" value="vf1" style="rounded=0;whiteSpace=wrap;html=1;fontSize=14;" parent="1" vertex="1">
                    <mxGeometry x="110" y="200" width="85" height="20" as="geometry"/>
                </mxCell>
                <mxCell id="30" value="vf2" style="rounded=0;whiteSpace=wrap;html=1;fontSize=14;" parent="1" vertex="1">
                    <mxGeometry x="110" y="220" width="85" height="20" as="geometry"/>
                </mxCell>
                <mxCell id="31" value="vf3" style="rounded=0;whiteSpace=wrap;html=1;fontSize=14;" parent="1" vertex="1">
                    <mxGeometry x="110" y="240" width="85" height="20" as="geometry"/>
                </mxCell>
                <mxCell id="34" value="2 vfs" style="text;html=1;align=center;verticalAlign=middle;resizable=0;points=[];autosize=1;strokeColor=none;fillColor=none;fontSize=14;" parent="1" vertex="1">
                    <mxGeometry x="220" y="215" width="50" height="30" as="geometry"/>
                </mxCell>
                <mxCell id="41" value="net1-0" style="rounded=0;whiteSpace=wrap;html=1;fontSize=14;" parent="1" vertex="1">
                    <mxGeometry x="471" y="167" width="85" height="20" as="geometry"/>
                </mxCell>
                <mxCell id="42" value="net1-1" style="rounded=0;whiteSpace=wrap;html=1;fontSize=14;" parent="1" vertex="1">
                    <mxGeometry x="575" y="167" width="85" height="20" as="geometry"/>
                </mxCell>
                <mxCell id="43" value="net1-0" style="text;html=1;align=center;verticalAlign=middle;resizable=0;points=[];autosize=1;strokeColor=none;fillColor=none;fontSize=14;rotation=270;" parent="1" vertex="1">
                    <mxGeometry x="680" y="315" width="60" height="30" as="geometry"/>
                </mxCell>
                <mxCell id="48" value="vf0, vf1" style="text;html=1;align=center;verticalAlign=middle;resizable=0;points=[];autosize=1;strokeColor=none;fillColor=none;fontSize=14;" parent="1" vertex="1">
                    <mxGeometry x="485" y="289" width="70" height="30" as="geometry"/>
                </mxCell>
                <mxCell id="53" style="edgeStyle=none;html=1;exitX=1;exitY=0.25;exitDx=0;exitDy=0;entryX=1;entryY=0.5;entryDx=0;entryDy=0;" parent="1" source="49" target="17" edge="1">
                    <mxGeometry relative="1" as="geometry">
                        <Array as="points">
                            <mxPoint x="720" y="377"/>
                            <mxPoint x="720" y="160"/>
                        </Array>
                    </mxGeometry>
                </mxCell>
                <mxCell id="49" value="host-device" style="rounded=0;whiteSpace=wrap;html=1;fontSize=14;" parent="1" vertex="1">
                    <mxGeometry x="570" y="367" width="120" height="40" as="geometry"/>
                </mxCell>
                <mxCell id="54" style="edgeStyle=none;html=1;exitX=1;exitY=0.5;exitDx=0;exitDy=0;" parent="1" source="49" edge="1">
                    <mxGeometry relative="1" as="geometry">
                        <mxPoint x="700" y="387" as="sourcePoint"/>
                        <mxPoint x="700" y="150" as="targetPoint"/>
                        <Array as="points">
                            <mxPoint x="740" y="387"/>
                            <mxPoint x="740" y="150"/>
                        </Array>
                    </mxGeometry>
                </mxCell>
                <mxCell id="55" value="net1-1" style="text;html=1;align=center;verticalAlign=middle;resizable=0;points=[];autosize=1;strokeColor=none;fillColor=none;fontSize=14;rotation=270;" parent="1" vertex="1">
                    <mxGeometry x="703" y="315" width="60" height="30" as="geometry"/>
                </mxCell>
                <mxCell id="61" style="edgeStyle=none;html=1;" parent="1" edge="1">
                    <mxGeometry relative="1" as="geometry">
                        <Array as="points">
                            <mxPoint x="480" y="380"/>
                        </Array>
                        <mxPoint x="570" y="380" as="targetPoint"/>
                        <mxPoint x="480" y="350" as="sourcePoint"/>
                    </mxGeometry>
                </mxCell>
                <mxCell id="63" style="edgeStyle=none;html=1;exitX=0.375;exitY=0.996;exitDx=0;exitDy=0;entryX=0;entryY=1;entryDx=0;entryDy=0;exitPerimeter=0;" parent="1" edge="1">
                    <mxGeometry relative="1" as="geometry">
                        <mxPoint x="465" y="349.8399999999999" as="sourcePoint"/>
                        <mxPoint x="570" y="407" as="targetPoint"/>
                        <Array as="points">
                            <mxPoint x="465" y="407"/>
                        </Array>
                    </mxGeometry>
                </mxCell>
                <mxCell id="64" value="net1-0, vf0" style="text;html=1;align=center;verticalAlign=middle;resizable=0;points=[];autosize=1;strokeColor=none;fillColor=none;fontSize=14;" parent="1" vertex="1">
                    <mxGeometry x="485" y="350" width="90" height="30" as="geometry"/>
                </mxCell>
                <mxCell id="65" value="net1-1, vf1" style="text;html=1;align=center;verticalAlign=middle;resizable=0;points=[];autosize=1;strokeColor=none;fillColor=none;fontSize=14;" parent="1" vertex="1">
                    <mxGeometry x="464" y="380" width="90" height="30" as="geometry"/>
                </mxCell>
                <mxCell id="67" style="edgeStyle=none;html=1;startArrow=classic;startFill=1;fontSize=14;entryX=0.25;entryY=0;entryDx=0;entryDy=0;" parent="1" edge="1">
                    <mxGeometry relative="1" as="geometry">
                        <mxPoint x="593" y="330" as="sourcePoint"/>
                        <mxPoint x="593" y="367" as="targetPoint"/>
                    </mxGeometry>
                </mxCell>
                <mxCell id="68" value="vf0" style="text;html=1;align=center;verticalAlign=middle;resizable=0;points=[];autosize=1;strokeColor=none;fillColor=none;fontSize=14;" parent="1" vertex="1">
                    <mxGeometry x="587.5" y="333" width="40" height="30" as="geometry"/>
                </mxCell>
                <mxCell id="69" value="vf1" style="text;html=1;align=center;verticalAlign=middle;resizable=0;points=[];autosize=1;strokeColor=none;fillColor=none;fontSize=14;" parent="1" vertex="1">
                    <mxGeometry x="640" y="333" width="40" height="30" as="geometry"/>
                </mxCell>
                <mxCell id="70" style="edgeStyle=none;html=1;startArrow=classic;startFill=1;fontSize=14;entryX=0.25;entryY=0;entryDx=0;entryDy=0;" parent="1" edge="1">
                    <mxGeometry relative="1" as="geometry">
                        <mxPoint x="646" y="331.5" as="sourcePoint"/>
                        <mxPoint x="646" y="368.5" as="targetPoint"/>
                    </mxGeometry>
                </mxCell>
                <mxCell id="71" value="Multi-NIC Daemon" style="rounded=0;whiteSpace=wrap;html=1;fontSize=14;" parent="1" vertex="1">
                    <mxGeometry x="431" y="260" width="120" height="28" as="geometry"/>
                </mxCell>
                <mxCell id="78" style="edgeStyle=none;html=1;exitX=0.75;exitY=1;exitDx=0;exitDy=0;entryX=0.75;entryY=0;entryDx=0;entryDy=0;" edge="1" parent="1" source="76" target="2">
                    <mxGeometry relative="1" as="geometry"/>
                </mxCell>
                <mxCell id="76" value="Network Policy" style="rounded=0;whiteSpace=wrap;html=1;fontSize=14;" vertex="1" parent="1">
                    <mxGeometry x="270" y="127" width="120" height="40" as="geometry"/>
                </mxCell>
                <mxCell id="79" value="vf0&lt;br&gt;vf1" style="text;html=1;align=center;verticalAlign=middle;resizable=0;points=[];autosize=1;strokeColor=none;fillColor=none;fontSize=14;" vertex="1" parent="1">
                    <mxGeometry x="353" y="165" width="40" height="50" as="geometry"/>
                </mxCell>
                <mxCell id="80" style="edgeStyle=none;html=1;entryX=0.642;entryY=0;entryDx=0;entryDy=0;entryPerimeter=0;fontSize=14;exitX=1;exitY=0.5;exitDx=0;exitDy=0;startArrow=classic;startFill=1;" edge="1" parent="1" source="103">
                    <mxGeometry relative="1" as="geometry">
                        <mxPoint x="481" y="535" as="sourcePoint"/>
                        <mxPoint x="481" y="575" as="targetPoint"/>
                        <Array as="points">
                            <mxPoint x="481" y="521"/>
                        </Array>
                    </mxGeometry>
                </mxCell>
                <mxCell id="81" style="edgeStyle=none;html=1;startArrow=classic;startFill=1;fontSize=14;entryX=0.25;entryY=0;entryDx=0;entryDy=0;" edge="1" parent="1" target="97">
                    <mxGeometry relative="1" as="geometry">
                        <mxPoint x="600" y="595" as="sourcePoint"/>
                        <mxPoint x="575" y="587" as="targetPoint"/>
                    </mxGeometry>
                </mxCell>
                <mxCell id="82" style="edgeStyle=none;html=1;exitX=0.5;exitY=1;exitDx=0;exitDy=0;entryX=0.896;entryY=1.083;entryDx=0;entryDy=0;entryPerimeter=0;" edge="1" parent="1" source="83" target="101">
                    <mxGeometry relative="1" as="geometry">
                        <Array as="points">
                            <mxPoint x="480" y="647"/>
                        </Array>
                        <mxPoint x="570" y="652" as="targetPoint"/>
                    </mxGeometry>
                </mxCell>
                <mxCell id="83" value="Multi-NIC CNI" style="rounded=0;whiteSpace=wrap;html=1;fontSize=14;" vertex="1" parent="1">
                    <mxGeometry x="420" y="575" width="120" height="40" as="geometry"/>
                </mxCell>
                <mxCell id="84" value="IPAM Plugin" style="rounded=0;whiteSpace=wrap;html=1;fontSize=14;" vertex="1" parent="1">
                    <mxGeometry x="580" y="558" width="110" height="40" as="geometry"/>
                </mxCell>
                <mxCell id="85" style="edgeStyle=none;html=1;exitX=1;exitY=0.5;exitDx=0;exitDy=0;entryX=0;entryY=0.5;entryDx=0;entryDy=0;fontSize=14;" edge="1" parent="1" source="87" target="83">
                    <mxGeometry relative="1" as="geometry"/>
                </mxCell>
                <mxCell id="86" value="" style="edgeStyle=none;html=1;" edge="1" parent="1" source="87" target="83">
                    <mxGeometry relative="1" as="geometry"/>
                </mxCell>
                <mxCell id="87" value="Multus CNI" style="rounded=0;whiteSpace=wrap;html=1;fontSize=14;" vertex="1" parent="1">
                    <mxGeometry x="270" y="575" width="120" height="40" as="geometry"/>
                </mxCell>
                <mxCell id="88" value="" style="rounded=0;whiteSpace=wrap;html=1;fontSize=14;" vertex="1" parent="1">
                    <mxGeometry x="450" y="425" width="246" height="60" as="geometry"/>
                </mxCell>
                <mxCell id="89" value="Pod B with shared networks" style="text;html=1;align=center;verticalAlign=middle;resizable=0;points=[];autosize=1;strokeColor=none;fillColor=none;fontSize=14;" vertex="1" parent="1">
                    <mxGeometry x="440" y="425" width="200" height="30" as="geometry"/>
                </mxCell>
                <mxCell id="91" value="vf2" style="text;html=1;align=center;verticalAlign=middle;resizable=0;points=[];autosize=1;strokeColor=none;fillColor=none;fontSize=14;" vertex="1" parent="1">
                    <mxGeometry x="597.5" y="598" width="40" height="30" as="geometry"/>
                </mxCell>
                <mxCell id="92" value="vf3" style="text;html=1;align=center;verticalAlign=middle;resizable=0;points=[];autosize=1;strokeColor=none;fillColor=none;fontSize=14;" vertex="1" parent="1">
                    <mxGeometry x="658" y="598" width="40" height="30" as="geometry"/>
                </mxCell>
                <mxCell id="93" value="net1-0" style="rounded=0;whiteSpace=wrap;html=1;fontSize=14;" vertex="1" parent="1">
                    <mxGeometry x="471" y="455" width="85" height="20" as="geometry"/>
                </mxCell>
                <mxCell id="94" value="net1-1" style="rounded=0;whiteSpace=wrap;html=1;fontSize=14;" vertex="1" parent="1">
                    <mxGeometry x="575" y="455" width="85" height="20" as="geometry"/>
                </mxCell>
                <mxCell id="95" value="net1-0" style="text;html=1;align=center;verticalAlign=middle;resizable=0;points=[];autosize=1;strokeColor=none;fillColor=none;fontSize=14;rotation=270;" vertex="1" parent="1">
                    <mxGeometry x="680" y="580" width="60" height="30" as="geometry"/>
                </mxCell>
                <mxCell id="96" style="edgeStyle=none;html=1;exitX=1;exitY=0.25;exitDx=0;exitDy=0;entryX=1;entryY=0.5;entryDx=0;entryDy=0;" edge="1" parent="1" source="97" target="88">
                    <mxGeometry relative="1" as="geometry">
                        <Array as="points">
                            <mxPoint x="720" y="642"/>
                            <mxPoint x="720" y="455"/>
                        </Array>
                    </mxGeometry>
                </mxCell>
                <mxCell id="97" value="ipvlan" style="rounded=0;whiteSpace=wrap;html=1;fontSize=14;" vertex="1" parent="1">
                    <mxGeometry x="570" y="632" width="120" height="40" as="geometry"/>
                </mxCell>
                <mxCell id="98" style="edgeStyle=none;html=1;exitX=1;exitY=0.5;exitDx=0;exitDy=0;" edge="1" parent="1" source="97">
                    <mxGeometry relative="1" as="geometry">
                        <mxPoint x="700" y="652" as="sourcePoint"/>
                        <mxPoint x="700" y="435" as="targetPoint"/>
                        <Array as="points">
                            <mxPoint x="740" y="652"/>
                            <mxPoint x="740" y="435"/>
                        </Array>
                    </mxGeometry>
                </mxCell>
                <mxCell id="99" value="net1-1" style="text;html=1;align=center;verticalAlign=middle;resizable=0;points=[];autosize=1;strokeColor=none;fillColor=none;fontSize=14;rotation=270;" vertex="1" parent="1">
                    <mxGeometry x="703" y="580" width="60" height="30" as="geometry"/>
                </mxCell>
                <mxCell id="100" style="edgeStyle=none;html=1;exitX=0.375;exitY=0.996;exitDx=0;exitDy=0;entryX=0;entryY=1;entryDx=0;entryDy=0;exitPerimeter=0;" edge="1" parent="1" source="83" target="97">
                    <mxGeometry relative="1" as="geometry">
                        <mxPoint x="520" y="625" as="sourcePoint"/>
                        <mxPoint x="580" y="662" as="targetPoint"/>
                        <Array as="points">
                            <mxPoint x="465" y="672"/>
                        </Array>
                    </mxGeometry>
                </mxCell>
                <mxCell id="101" value="net1-0, vf2" style="text;html=1;align=center;verticalAlign=middle;resizable=0;points=[];autosize=1;strokeColor=none;fillColor=none;fontSize=14;" vertex="1" parent="1">
                    <mxGeometry x="485" y="615" width="90" height="30" as="geometry"/>
                </mxCell>
                <mxCell id="102" value="net1-1, vf3" style="text;html=1;align=center;verticalAlign=middle;resizable=0;points=[];autosize=1;strokeColor=none;fillColor=none;fontSize=14;" vertex="1" parent="1">
                    <mxGeometry x="464" y="645" width="90" height="30" as="geometry"/>
                </mxCell>
                <mxCell id="103" value="Multi-NIC Daemon" style="rounded=0;whiteSpace=wrap;html=1;fontSize=14;" vertex="1" parent="1">
                    <mxGeometry x="320" y="501" width="120" height="40" as="geometry"/>
                </mxCell>
                <mxCell id="104" value="2 NICs" style="text;html=1;align=center;verticalAlign=middle;resizable=0;points=[];autosize=1;strokeColor=none;fillColor=none;fontSize=13;" vertex="1" parent="1">
                    <mxGeometry x="425" y="538" width="60" height="30" as="geometry"/>
                </mxCell>
                <mxCell id="105" value="vf2&lt;br&gt;vf3" style="text;html=1;align=center;verticalAlign=middle;resizable=0;points=[];autosize=1;strokeColor=none;fillColor=none;fontSize=13;" vertex="1" parent="1">
                    <mxGeometry x="483" y="518" width="40" height="40" as="geometry"/>
                </mxCell>
                <mxCell id="106" style="edgeStyle=none;html=1;startArrow=classic;startFill=1;fontSize=14;entryX=0.25;entryY=0;entryDx=0;entryDy=0;" edge="1" parent="1">
                    <mxGeometry relative="1" as="geometry">
                        <mxPoint x="660" y="598" as="sourcePoint"/>
                        <mxPoint x="660" y="635" as="targetPoint"/>
                    </mxGeometry>
                </mxCell>
                <mxCell id="109" style="edgeStyle=none;html=1;exitX=0.75;exitY=1;exitDx=0;exitDy=0;" edge="1" parent="1" source="108">
                    <mxGeometry relative="1" as="geometry">
                        <mxPoint x="360" y="500" as="targetPoint"/>
                    </mxGeometry>
                </mxCell>
                <mxCell id="108" value="MultiNicNetwork Policy" style="rounded=0;whiteSpace=wrap;html=1;fontSize=14;" vertex="1" parent="1">
                    <mxGeometry x="270" y="425" width="120" height="40" as="geometry"/>
                </mxCell>
                <mxCell id="110" value="vf2&lt;br&gt;vf3" style="text;html=1;align=center;verticalAlign=middle;resizable=0;points=[];autosize=1;strokeColor=none;fillColor=none;fontSize=14;" vertex="1" parent="1">
                    <mxGeometry x="358" y="459" width="40" height="50" as="geometry"/>
                </mxCell>
            </root>
        </mxGraphModel>
    </diagram>
</mxfile>